# xmcd CD database file
#
# Track frame offsets:
#	150
#	21820
#	42677
#	63765
#	78462
#	97235
#	119227
#	137405
#	159230
#	176487
#	198612
#	218607
#
# Disc length: 3169 seconds
#
# Revision: 0
# Processed by: cddbd v1.5.1PL0 Copyright (c) Steve Scherf et al.
# Submitted via: CDex 1.51
#
DISCID=a90c5f0c
DTITLE=TUBE - Nagisa no Cassette vol,2
DYEAR=1988
DGENRE=Rock
TTITLE0=MORNING CALL FROM THE BEACH
TTITLE1=シーズン・イン・ザ・サン
TTITLE2=Be My Venus
TTITLE3=サマーガール
TTITLE4=ロックンロール・メドレー
TTITLE5=SAIL AWAY FEREVER
TTITLE6=Right On!
TTITLE7=グッバイ・サマーデイズ
TTITLE8=BLUES IN THE RAIN
TTITLE9=SUMMER ILLUSION
TTITLE10=Get Up
TTITLE11=Last Page
EXTD=YEAR: 1988
EXTT0=
EXTT1=
EXTT2=
EXTT3=
EXTT4=
EXTT5=
EXTT6=
EXTT7=
EXTT8=
EXTT9=
EXTT10=
EXTT11=
PLAYORDER=
